<svg width="482" height="188" viewBox="0 0 482 188" fill="none" xmlns="http://www.w3.org/2000/svg">
<g clip-path="url(#clip0_6262_6652)">
<path d="M37.9832 88.4082L48.8827 82.1222L42.7988 71.5904H100.016L71.4167 121.143L65.3328 110.593L54.4335 116.897L71.4167 146.306L121.815 59H21L37.9832 88.4082Z" fill="white"/>
<path d="M171.75 112L170 105.3H158.4L156.6 112H146L157.65 76.15H170.5L182.3 112H171.75ZM166.45 91.55C166.283 90.9167 166.05 90.0167 165.75 88.85C165.45 87.65 165.15 86.4167 164.85 85.15C164.55 83.8833 164.317 82.85 164.15 82.05C164.017 82.85 163.8 83.85 163.5 85.05C163.233 86.25 162.95 87.4333 162.65 88.6C162.383 89.7667 162.15 90.75 161.95 91.55L160.4 97.4H168L166.45 91.55ZM217.629 64.35C217.429 66.1833 216.896 67.8 216.029 69.2C215.163 70.6 213.879 71.7 212.179 72.5C210.479 73.2667 208.263 73.65 205.529 73.65C202.896 73.65 200.713 73.3167 198.979 72.65C197.279 71.95 195.996 70.9167 195.129 69.55C194.263 68.15 193.746 66.4167 193.579 64.35H201.529C201.629 66.1167 202.013 67.3167 202.679 67.95C203.379 68.5833 204.329 68.9 205.529 68.9C206.596 68.9 207.496 68.5833 208.229 67.95C208.963 67.2833 209.396 66.0833 209.529 64.35H217.629ZM187.129 76.3H196.129V92.65C196.129 93.3833 196.113 94.15 196.079 94.95C196.079 95.75 196.063 96.55 196.029 97.35C195.996 98.1167 195.946 98.85 195.879 99.55C195.846 100.25 195.796 100.867 195.729 101.4H195.929L210.629 76.3H221.679V112H212.679V96.55C212.679 95.8833 212.679 95.1333 212.679 94.3C212.713 93.4333 212.746 92.55 212.779 91.65C212.846 90.75 212.896 89.9 212.929 89.1C212.996 88.2667 213.063 87.5333 213.129 86.9H212.929L198.229 112H187.129V76.3ZM246.116 112H236.466V84.2H227.766V76.3H254.816V84.2H246.116V112ZM260.907 76.3H269.907V92.65C269.907 93.3833 269.89 94.15 269.857 94.95C269.857 95.75 269.84 96.55 269.807 97.35C269.773 98.1167 269.723 98.85 269.657 99.55C269.623 100.25 269.573 100.867 269.507 101.4H269.707L284.407 76.3H295.457V112H286.457V96.55C286.457 95.8833 286.457 95.1333 286.457 94.3C286.49 93.4333 286.523 92.55 286.557 91.65C286.623 90.75 286.673 89.9 286.707 89.1C286.773 88.2667 286.84 87.5333 286.907 86.9H286.707L272.007 112H260.907V76.3ZM344.839 112H333.939L323.339 93.9V112H313.639V76.3H323.339V93.6L333.539 76.3H344.139L333.139 93.35L344.839 112ZM379.902 112H370.202V84.2H363.402C363.269 85.5333 363.102 87.0333 362.902 88.7C362.736 90.3667 362.536 92.0833 362.302 93.85C362.069 95.5833 361.819 97.2667 361.552 98.9C361.286 100.5 361.019 101.9 360.752 103.1C360.319 105.067 359.686 106.75 358.852 108.15C358.052 109.55 356.936 110.633 355.502 111.4C354.102 112.133 352.286 112.5 350.052 112.5C349.319 112.5 348.636 112.45 348.002 112.35C347.402 112.25 346.819 112.117 346.252 111.95V104.5C346.719 104.633 347.136 104.75 347.502 104.85C347.869 104.95 348.252 105 348.652 105C349.186 105 349.652 104.85 350.052 104.55C350.486 104.217 350.886 103.533 351.252 102.5C351.619 101.467 351.986 99.8667 352.352 97.7C352.486 97 352.652 95.95 352.852 94.55C353.086 93.15 353.319 91.5 353.552 89.6C353.819 87.7 354.102 85.6167 354.402 83.35C354.702 81.0833 354.986 78.7333 355.252 76.3H379.902V112ZM408.538 101.35C407.472 103.817 406.322 105.883 405.088 107.55C403.888 109.183 402.355 110.417 400.488 111.25C398.622 112.083 396.188 112.5 393.188 112.5C392.355 112.5 391.355 112.433 390.188 112.3C389.055 112.2 387.972 112.017 386.938 111.75V103.7C387.838 104.033 388.822 104.267 389.888 104.4C390.955 104.533 391.905 104.6 392.738 104.6C393.638 104.6 394.372 104.467 394.938 104.2C395.505 103.9 395.938 103.533 396.238 103.1C396.572 102.667 396.822 102.25 396.988 101.85L385.338 76.3H395.738L400.138 87.2C400.372 87.7333 400.638 88.4167 400.938 89.25C401.272 90.05 401.572 90.8667 401.838 91.7C402.138 92.5 402.355 93.2167 402.488 93.85H402.788C402.988 93.05 403.255 92.15 403.588 91.15C403.922 90.1167 404.255 89.15 404.588 88.25C404.955 87.3167 405.205 86.65 405.338 86.25L408.988 76.3H419.388L408.538 101.35ZM423.621 112V76.3H447.121V84.05H433.271V88.9H436.771C439.838 88.9 442.355 89.3667 444.321 90.3C446.288 91.2333 447.755 92.5333 448.721 94.2C449.688 95.8333 450.171 97.7333 450.171 99.9C450.171 102.4 449.588 104.567 448.421 106.4C447.288 108.2 445.655 109.583 443.521 110.55C441.388 111.517 438.805 112 435.771 112H423.621ZM435.921 104.35C437.488 104.35 438.638 104.017 439.371 103.35C440.138 102.65 440.521 101.65 440.521 100.35C440.521 99.5167 440.321 98.8333 439.921 98.3C439.555 97.7333 439.038 97.3 438.371 97C437.705 96.7 436.955 96.55 436.121 96.55H433.271V104.35H435.921Z" fill="white"/>
</g>
<defs>
<clipPath id="clip0_6262_6652">
<rect width="482" height="188" fill="white"/>
</clipPath>
</defs>
</svg>
